<?xml version="1.0" standalone="no"?>
<!DOCTYPE svg PUBLIC "-//W3C//DTD SVG 20010904//EN"
 "http://www.w3.org/TR/2001/REC-SVG-20010904/DTD/svg10.dtd">
<svg version="1.0" xmlns="http://www.w3.org/2000/svg"
 width="1563.000000pt" height="305.000000pt" viewBox="0 0 1563.000000 305.000000"
 preserveAspectRatio="xMidYMid meet">

<g transform="translate(0.000000,305.000000) scale(0.100000,-0.100000)"
fill="#000000" stroke="none">
<path d="M1283 2853 l-133 -151 -2 -468 -3 -469 -412 -3 -412 -2 -101 -114
c-81 -92 -100 -120 -100 -145 l0 -31 546 0 c390 0 558 3 586 12 52 15 121 78
144 130 18 40 19 82 22 588 1 300 1 603 0 674 l-3 129 -132 -150z"/>
<path d="M1682 2098 c3 -442 4 -454 25 -493 12 -22 36 -54 55 -72 66 -64 61
-63 558 -63 l450 0 0 540 0 540 -546 0 -545 0 3 -452z"/>
<path d="M11895 1940 c-136 -16 -252 -69 -347 -159 -313 -294 -234 -859 145
-1040 102 -49 185 -64 312 -58 167 8 279 54 392 161 125 118 182 247 190 431
6 138 -12 230 -67 343 -111 224 -364 354 -625 322z m241 -260 c162 -79 237
-276 188 -491 -39 -173 -174 -279 -354 -279 -169 0 -291 90 -341 253 -18 58
-21 86 -17 175 5 116 21 166 77 245 94 129 293 173 447 97z"/>
<path d="M14630 1940 c-97 -12 -172 -44 -234 -101 -74 -68 -100 -128 -100
-239 0 -102 23 -162 87 -228 51 -53 116 -87 272 -142 142 -50 181 -69 217
-105 76 -75 54 -201 -42 -239 -105 -42 -220 9 -257 115 l-18 49 -129 0 -129 0
6 -39 c9 -67 56 -157 107 -205 90 -84 208 -126 360 -126 248 0 410 138 410
349 0 102 -23 164 -83 228 -55 59 -111 89 -272 147 -147 54 -190 75 -226 112
-42 43 -51 121 -21 170 40 64 141 83 222 42 36 -18 50 -34 70 -75 l25 -52 132
-1 133 0 -6 33 c-22 115 -121 236 -228 276 -44 16 -205 45 -226 40 -3 -1 -34
-5 -70 -9z"/>
<path d="M10473 1925 c-105 -23 -190 -70 -268 -149 -124 -125 -178 -266 -178
-466 0 -200 54 -343 177 -465 114 -113 246 -165 421 -165 271 0 474 136 562
376 l23 64 -133 0 -132 0 -13 -29 c-23 -52 -91 -119 -149 -147 -73 -36 -195
-45 -271 -20 -148 49 -235 193 -235 386 0 245 135 400 348 400 124 0 233 -59
290 -157 l30 -52 132 -1 133 0 -23 64 c-88 242 -293 377 -567 375 -47 0 -113
-7 -147 -14z"/>
<path d="M3720 1310 l0 -620 125 0 125 0 0 270 0 270 265 0 265 0 0 -270 0
-270 125 0 125 0 0 620 0 620 -125 0 -125 0 0 -250 0 -250 -265 0 -265 0 0
250 0 250 -125 0 -125 0 0 -620z"/>
<path d="M4970 1310 l0 -620 125 0 125 0 0 240 0 240 55 0 54 0 143 -240 143
-239 139 -1 138 0 -14 23 c-54 81 -279 448 -284 461 -3 9 -1 16 5 16 35 0 131
49 174 89 88 82 126 199 107 330 -24 171 -140 279 -332 311 -35 5 -179 10
-320 10 l-258 0 0 -620z m573 386 c60 -30 81 -69 85 -156 4 -93 -15 -134 -79
-170 -40 -22 -57 -25 -186 -28 l-143 -4 0 192 0 192 143 -4 c113 -3 150 -7
180 -22z"/>
<path d="M6340 1830 l0 -100 170 0 170 0 0 -520 0 -520 125 0 125 0 0 520 0
520 170 0 170 0 0 100 0 100 -465 0 -465 0 0 -100z"/>
<path d="M7410 1310 l0 -620 370 0 370 0 0 100 0 100 -245 0 -245 0 0 165 0
165 220 0 220 0 0 95 0 95 -220 0 -220 0 0 160 0 160 245 0 245 0 0 100 0 100
-370 0 -370 0 0 -620z"/>
<path d="M8330 1310 l0 -620 330 0 330 0 0 95 0 95 -205 0 -205 0 0 525 0 525
-125 0 -125 0 0 -620z"/>
<path d="M9140 1310 l0 -620 370 0 370 0 0 100 0 100 -245 0 -245 0 0 165 0
165 220 0 220 0 0 95 0 95 -220 0 -220 0 0 160 0 160 245 0 245 0 0 100 0 100
-370 0 -370 0 0 -620z"/>
<path d="M12770 1300 l0 -610 125 0 125 0 0 423 1 422 156 -422 156 -423 107
0 107 0 154 419 154 418 3 -418 2 -419 125 0 125 0 0 610 0 611 -152 -3 -153
-3 -179 -453 -180 -453 -16 33 c-9 18 -93 223 -186 455 l-169 423 -152 0 -153
0 0 -610z"/>
<path d="M330 645 l0 -545 543 2 542 3 0 445 c0 500 1 495 -70 566 -73 73 -84
74 -582 74 l-433 0 0 -545z"/>
<path d="M1847 1174 c-59 -18 -128 -84 -148 -140 -11 -31 -14 -131 -14 -484
l0 -445 543 -3 542 -2 0 545 0 545 -437 -1 c-357 0 -447 -3 -486 -15z"/>
</g>
</svg>
